<svg xmlns="http://www.w3.org/2000/svg" width="330.644" height="330.644" viewBox="0 0 330.644 330.644">
  <g id="favorite-svgrepo-com" transform="translate(-90.679 -90.679)">
    <circle id="Ellipse_5" data-name="Ellipse 5" cx="165.322" cy="165.322" r="165.322" transform="translate(90.679 90.679)" fill="#e6e6e6"/>
    <path id="Path_19" data-name="Path 19" d="M256,224.572c0-34.782,23.949-62.979,53.49-62.979,36.927,0,66.863,35.246,66.863,78.724,0,53.78-63.065,106.37-118.6,135.178a3.816,3.816,0,0,1-3.513,0c-55.532-28.81-118.6-81.4-118.6-135.178,0-43.478,29.936-78.724,66.863-78.724C232.052,161.593,256,189.79,256,224.572Z" fill="#f97e62"/>
    <path id="Path_20" data-name="Path 20" d="M254.837,375.493a1.88,1.88,0,0,0,1.166.43,3.819,3.819,0,0,1-1.756-.43c-55.537-28.806-118.6-81.4-118.6-135.177,0-43.479,29.936-78.732,66.858-78.732a45.644,45.644,0,0,1,10.326,1.179c-20.825,6.459-36.664,38.727-36.664,77.553C176.166,294.1,218,346.687,254.837,375.493Z" fill="#e86b56"/>
  </g>
</svg>
